<svg width="144" height="43" viewBox="0 0 144 43" fill="none" xmlns="http://www.w3.org/2000/svg">
<path d="M27.1757 33.2911C27.1757 33.7637 26.8955 34 26.335 34H22.3784C21.9608 34 21.4992 33.8516 20.9936 33.5549C20.4991 33.2472 20.1199 32.879 19.8561 32.4504L17.0536 28.0652C15.8996 26.2628 14.5038 25.3616 12.8662 25.3616H8.84375V32.4504C8.84375 32.879 8.68988 33.2472 8.38215 33.5549C8.08541 33.8516 7.72273 34 7.29411 34H4.19482C3.76619 34 3.39801 33.8516 3.09028 33.5549C2.78255 33.2472 2.62868 32.879 2.62868 32.4504V11.9258C2.62868 11.4972 2.77705 11.129 3.0738 10.8213C3.37054 10.5135 3.73322 10.3597 4.16184 10.3597H17.7625C20.2793 10.3597 22.3399 11.0356 23.9445 12.3874C25.5601 13.7392 26.3679 15.5636 26.3679 17.8606C26.3679 21.0588 24.2962 23.0646 20.1529 23.8779C20.8123 24.1196 21.4223 24.5373 21.9828 25.1308C22.5433 25.7132 23.1862 26.565 23.9116 27.686L26.912 32.4504C27.0878 32.7581 27.1757 33.0383 27.1757 33.2911ZM8.84375 20.6961H15.8666C16.9986 20.6961 17.9932 20.4708 18.8505 20.0202C19.7187 19.5696 20.1529 18.8497 20.1529 17.8606C20.1529 16.8715 19.7187 16.1516 18.8505 15.701C17.9932 15.2504 16.9986 15.0251 15.8666 15.0251H8.84375V20.6961ZM27.9835 32.4833L32.1214 16.789C33.2424 12.5138 36.8912 10.3707 43.0678 10.3597H51.9536C52.3602 10.3597 52.6954 10.5135 52.9592 10.8213C53.2339 11.129 53.3713 11.4862 53.3713 11.8928V32.4833C53.3713 32.912 53.2174 33.2746 52.9097 33.5714C52.602 33.8571 52.2338 34 51.8052 34H48.7059C48.2553 34 47.8816 33.8571 47.5849 33.5714C47.2991 33.2746 47.1562 32.901 47.1562 32.4504V28.296H35.435L34.3305 32.4504C34.2206 32.901 33.9733 33.2746 33.5886 33.5714C33.2039 33.8571 32.7973 34 32.3687 34H29.121C28.6924 34 28.3847 33.8791 28.1978 33.6373C28.011 33.3845 27.9176 33.1647 27.9176 32.9779C27.9286 32.7911 27.9505 32.6262 27.9835 32.4833ZM36.6549 23.6306H47.1562V15.0251H42.4579C41.4028 15.0251 40.4796 15.3273 39.6883 15.9318C38.908 16.5253 38.3804 17.3276 38.1057 18.3387L36.6549 23.6306Z" fill="#1E3A5F"/>
<path d="M80.3618 32.4833V11.9258C80.3618 11.4972 80.5156 11.129 80.8234 10.8213C81.1311 10.5135 81.4993 10.3597 81.9279 10.3597H84.9942C85.4448 10.3597 85.8185 10.5135 86.1152 10.8213C86.423 11.129 86.5768 11.4972 86.5768 11.9258V32.4504C86.5768 32.879 86.4175 33.2472 86.0988 33.5549C85.791 33.8516 85.4228 34 84.9942 34H81.9279C81.4993 34 81.1311 33.8571 80.8234 33.5714C80.5156 33.2746 80.3618 32.912 80.3618 32.4833ZM90.9785 24.6527V11.9258C90.9785 11.4972 91.1269 11.129 91.4236 10.8213C91.7313 10.5135 92.1105 10.3597 92.5611 10.3597H95.6439C96.0615 10.3597 96.4242 10.5135 96.732 10.8213C97.0397 11.129 97.1936 11.4972 97.1936 11.9258V24.6856C97.1936 26.3012 97.5452 27.5047 98.2486 28.296C98.963 29.0873 100.062 29.4829 101.546 29.4829H104.183C105.667 29.4829 106.761 29.0873 107.464 28.296C108.178 27.5047 108.536 26.3012 108.536 24.6856V11.9258C108.536 11.4972 108.684 11.129 108.981 10.8213C109.288 10.5135 109.657 10.3597 110.085 10.3597H113.152C113.602 10.3597 113.981 10.5135 114.289 10.8213C114.597 11.129 114.751 11.4972 114.751 11.9258V24.6527C114.751 27.664 113.866 29.9995 112.097 31.659C110.327 33.3076 107.744 34.1319 104.348 34.1319H101.381C97.9739 34.1319 95.3856 33.3076 93.6162 31.659C91.8577 29.9995 90.9785 27.664 90.9785 24.6527ZM117.784 27.9498C117.784 27.3014 117.976 26.8398 118.361 26.565C118.746 26.2793 119.119 26.1364 119.482 26.1364H121.444C122.433 26.1364 123.186 26.6749 123.702 27.752C124.219 28.829 125.378 29.3676 127.181 29.3676L132.951 29.4829C134.885 29.4829 135.852 28.851 135.852 27.5871C135.852 26.6309 134.671 25.8781 132.308 25.3286C131.253 25.0758 130.088 24.8285 128.813 24.5867C127.538 24.334 126.269 24.0207 125.005 23.6471C123.752 23.2734 122.598 22.8338 121.543 22.3282C120.488 21.8226 119.63 21.1303 118.971 20.251C118.323 19.3608 117.998 18.3167 117.998 17.1188C117.998 14.9097 118.784 13.2117 120.356 12.0247C121.927 10.8268 124.631 10.2278 128.467 10.2278L132.654 10.3267C134.907 10.3267 136.935 10.9092 138.737 12.0742C140.551 13.2282 141.457 14.6734 141.457 16.4099C141.457 17.0583 141.265 17.5254 140.88 17.8112C140.496 18.0969 140.128 18.2398 139.776 18.2398H137.814C136.825 18.2398 136.072 17.7013 135.556 16.6242C135.039 15.5361 133.879 14.9921 132.077 14.9921L127.115 14.8932C125.181 14.8932 124.213 15.5252 124.213 16.789C124.213 17.4814 124.823 18.0474 126.043 18.4871C127.274 18.9267 128.758 19.3168 130.494 19.6575C132.242 19.9873 133.995 20.3884 135.753 20.861C137.512 21.3336 139.001 22.1139 140.221 23.2019C141.452 24.279 142.067 25.6253 142.067 27.2409C142.067 29.45 141.276 31.1535 139.693 32.3514C138.122 33.5384 135.424 34.1319 131.599 34.1319L126.604 34.033C124.351 34.033 122.318 33.456 120.504 32.302C118.691 31.137 117.784 29.6863 117.784 27.9498Z" fill="#1E3A5F"/>
<path d="M59.877 14.2428V11.3413C59.877 10.6129 60.4674 10.0225 61.1958 10.0225H65.0205C70.164 10.0225 74.7799 12.6602 76.6263 18.3312C78.1034 22.868 76.1867 26.9916 75.0437 28.4863C73.593 27.0795 70.6915 24.2396 70.6915 24.1341C70.8234 23.3428 71.7466 20.9689 70.0321 18.3312C68.6605 16.221 66.1195 15.6056 65.0205 15.5616H62.4487H61.1958C60.4674 15.5616 59.877 14.9711 59.877 14.2428Z" fill="#1E3A5F"/>
<path d="M59.877 32.4429V29.5414C59.877 28.813 60.4673 28.2226 61.1957 28.2226H65.0205C66.181 28.2226 67.3504 27.7829 67.79 27.5631L71.8785 31.6516C69.7683 33.7617 65.8118 33.7617 65.548 33.7617H61.1953C60.4669 33.7617 59.877 33.1712 59.877 32.4429Z" fill="#1E3A5F"/>
<rect x="55.6523" y="19.2549" width="11.6059" height="5.01162" rx="2.50581" fill="#394FD4"/>
</svg>
